<?xml version="1.0" encoding="UTF-8"?>
<svg xmlns="http://www.w3.org/2000/svg" version="1.1" xmlns:xlink="http://www.w3.org/1999/xlink" viewBox="0 0 1000 1000">
  <defs>
    <style>
      .cls-1 {
        opacity: .4;
      }

      .cls-1, .cls-2 {
        display: none;
      }

      .cls-3 {
        fill: #9f3100;
      }

      .cls-3, .cls-4 {
        stroke-width: 0px;
      }

      .cls-4 {
        fill: #f60;
      }
    </style>
  </defs>
  <g id="Layer_3" data-name="Layer 3" class="cls-2">
    <rect class="cls-3" y="12" width="1000" height="1000"/>
  </g>
  <g id="Layer_2" data-name="Layer 2">
    <circle class="cls-4" cx="306" cy="117" r="17"/>
    <rect class="cls-4" x="297" y="124" width="18" height="74"/>
    <g>
      <path class="cls-4" d="M371.5,316h-69c-5.3,0-9.5,4.3-9.5,9.5v158c0,5.3,4.3,9.5,9.5,9.5h69c5.3,0,9.5-4.3,9.5-9.5v-158c0-5.3-4.3-9.5-9.5-9.5ZM365.6,359.5c-7.3,3.4-12.7,9.8-15,17.5l-2.7,9.2-2.7-9.2c-2.2-7.7-7.7-14.1-15-17.5l-5.4-2.5,5.4-2.5c7.3-3.4,12.7-9.8,15-17.5l2.7-9.2,2.7,9.2c2.2,7.7,7.7,14.1,15,17.5l5.4,2.5-5.4,2.5Z"/>
      <path class="cls-4" d="M696.5,316h-69c-5.3,0-9.5,4.3-9.5,9.5v158c0,5.3,4.3,9.5,9.5,9.5h69c5.3,0,9.5-4.3,9.5-9.5v-158c0-5.3-4.3-9.5-9.5-9.5ZM690.6,359.5c-7.3,3.4-12.7,9.8-15,17.5l-2.7,9.2-2.7-9.2c-2.2-7.7-7.7-14.1-15-17.5l-5.4-2.5,5.4-2.5c7.3-3.4,12.7-9.8,15-17.5l2.7-9.2,2.7,9.2c2.2,7.7,7.7,14.1,15,17.5l5.4,2.5-5.4,2.5Z"/>
    </g>
    <path class="cls-4" d="M789,192H210.5c-18.9,0-34.3,15.3-34.3,34.3v578.5c0,18.9,15.3,34.3,34.3,34.3h578.5c18.9,0,34.3-15.3,34.3-34.3V226.3c0-18.9-15.3-34.3-34.3-34.3ZM228.8,259.9c0-12.1,9.8-21.9,21.9-21.9h498.1c12.1,0,21.9,9.8,21.9,21.9v286.1c0,12.1-9.8,21.9-21.9,21.9H250.7c-12.1,0-21.9-9.8-21.9-21.9v-286.1ZM380.8,710.9c0,4.1-3.3,7.4-7.4,7.4h-42.1v42.1c0,4.1-3.3,7.4-7.4,7.4h-38.3c-4.1,0-7.4-3.3-7.4-7.4v-42.1h-42.1c-4.1,0-7.4-3.3-7.4-7.4v-38.3c0-4.1,3.3-7.4,7.4-7.4h42.1v-42.1c0-4.1,3.3-7.4,7.4-7.4h38.3c4.1,0,7.4,3.3,7.4,7.4v42.1h42.1c4.1,0,7.4,3.3,7.4,7.4v38.3ZM655.5,768c-20.2,0-36.5-16.3-36.5-36.5s16.3-36.5,36.5-36.5,36.5,16.3,36.5,36.5-16.3,36.5-36.5,36.5ZM734.5,689c-20.2,0-36.5-16.3-36.5-36.5s16.3-36.5,36.5-36.5,36.5,16.3,36.5,36.5-16.3,36.5-36.5,36.5Z"/>
  </g>
  <g id="Layer_1" data-name="Layer 1" class="cls-1">
    <image width="1548" height="1769" transform="translate(177 131) scale(.4)" xlink:href="BlastPad Logo.png"/>
  </g>
</svg>