<?xml version="1.0" encoding="UTF-8"?>
<svg xmlns="http://www.w3.org/2000/svg" version="1.1" xmlns:xlink="http://www.w3.org/1999/xlink" viewBox="0 0 876 1000">
  <defs>
    <style>
      .cls-1 {
        opacity: .4;
      }

      .cls-1, .cls-2 {
        display: none;
      }

      .cls-3 {
        fill: #9f3100;
      }

      .cls-3, .cls-4 {
        stroke-width: 0px;
      }

      .cls-4 {
        fill: #f60;
      }
    </style>
  </defs>
  <g id="Layer_3" data-name="Layer 3" class="cls-2">
    <rect class="cls-3" x="-62" y="12" width="1000" height="1000"/>
  </g>
  <g id="Layer_2" data-name="Layer 2">
    <circle class="cls-4" cx="175.9" cy="23" r="23"/>
    <rect class="cls-4" x="163.8" y="32.5" width="24.4" height="100.1"/>
    <g>
      <path class="cls-4" d="M264.5,292.3h-93.3c-7.1,0-12.9,5.8-12.9,12.9v213.7c0,7.1,5.8,12.9,12.9,12.9h93.3c7.1,0,12.9-5.8,12.9-12.9v-213.7c0-7.1-5.8-12.9-12.9-12.9ZM256.6,351.2c-9.8,4.6-17.2,13.2-20.2,23.7l-3.6,12.5-3.6-12.5c-3-10.4-10.4-19-20.2-23.7l-7.3-3.4,7.3-3.4c9.8-4.6,17.2-13.2,20.2-23.7l3.6-12.5,3.6,12.5c3,10.4,10.4,19,20.2,23.7l7.3,3.4-7.3,3.4Z"/>
      <path class="cls-4" d="M704.3,292.3h-93.3c-7.1,0-12.9,5.8-12.9,12.9v213.7c0,7.1,5.8,12.9,12.9,12.9h93.3c7.1,0,12.9-5.8,12.9-12.9v-213.7c0-7.1-5.8-12.9-12.9-12.9ZM696.4,351.2c-9.8,4.6-17.2,13.2-20.2,23.7l-3.6,12.5-3.6-12.5c-3-10.4-10.4-19-20.2-23.7l-7.3-3.4,7.3-3.4c9.8-4.6,17.2-13.2,20.2-23.7l3.6-12.5,3.6,12.5c3,10.4,10.4,19,20.2,23.7l7.3,3.4-7.3,3.4Z"/>
    </g>
    <path class="cls-4" d="M829.5,124.5H46.7C21.1,124.5.4,145.3.4,170.9v782.8c0,25.6,20.8,46.4,46.4,46.4h782.8c25.6,0,46.4-20.8,46.4-46.4V170.9c0-25.6-20.8-46.4-46.4-46.4ZM71.4,216.4c0-16.4,13.3-29.7,29.7-29.7h674.1c16.4,0,29.7,13.3,29.7,29.7v387.2c0,16.4-13.3,29.7-29.7,29.7H101.1c-16.4,0-29.7-13.3-29.7-29.7V216.4ZM277.1,826.6c0,5.5-4.5,10-10,10h-57v57c0,5.5-4.5,10-10,10h-51.8c-5.5,0-10-4.5-10-10v-57h-57c-5.5,0-10-4.5-10-10v-51.8c0-5.5,4.5-10,10-10h57v-57c0-5.5,4.5-10,10-10h51.8c5.5,0,10,4.5,10,10v57h57c5.5,0,10,4.5,10,10v51.8ZM648.9,903.9c-27.3,0-49.4-22.1-49.4-49.4s22.1-49.4,49.4-49.4,49.4,22.1,49.4,49.4-22.1,49.4-49.4,49.4ZM755.8,797c-27.3,0-49.4-22.1-49.4-49.4s22.1-49.4,49.4-49.4,49.4,22.1,49.4,49.4-22.1,49.4-49.4,49.4Z"/>
  </g>
  <g id="Layer_1" data-name="Layer 1" class="cls-1">
    <image width="1548" height="1769" transform="translate(115 131) scale(.4)" xlink:href="BlastPad Logo.png"/>
  </g>
</svg>